<svg version="1.0" xmlns="http://www.w3.org/2000/svg"
 width="845.000000pt" height="769.000000pt" viewBox="0 0 845.000000 769.000000"
 preserveAspectRatio="xMidYMid meet">

<g transform="translate(0.000000,769.000000) scale(0.100000,-0.100000)"
fill="#000000" stroke="none">
<path d="M112 7673 c-45 -18 -79 -170 -93 -421 -26 -468 49 -1275 187 -2012
287 -1525 793 -2809 1449 -3675 607 -802 1458 -1332 2410 -1500 234 -41 418
-56 690 -56 448 0 846 61 1205 186 276 96 564 286 821 540 l115 114 170 -48
c410 -118 816 -191 1059 -191 108 0 131 8 186 67 71 76 112 175 129 306 23
189 -34 340 -146 385 -16 6 -123 27 -238 47 -476 80 -850 188 -923 267 -21 23
-21 24 -5 133 25 179 22 634 -6 845 -126 934 -541 1819 -1180 2515 -310 338
-648 581 -1042 749 -382 162 -707 239 -1650 391 -457 74 -596 99 -859 156
-889 195 -1539 526 -2108 1073 -78 75 -146 136 -150 135 -4 0 -14 -3 -21 -6z
m2098 -3404 c1239 -1091 2647 -1912 4183 -2440 l127 -44 0 -41 c0 -63 -36
-189 -79 -278 -41 -84 -103 -166 -126 -166 -22 0 -330 105 -480 163 -827 322
-1680 856 -2525 1582 -599 515 -1261 1205 -1694 1765 -49 63 -92 120 -97 125
-4 6 112 -109 259 -255 147 -146 341 -331 432 -411z"/>
</g>
</svg>